<?xml version="1.0" encoding="utf-8"?>
<svg id="master-artboard" viewBox="0 0 1067.7635498046875 248.68666076660156" xmlns="http://www.w3.org/2000/svg" width="1067.7635498046875px" height="248.68666076660156px" version="1.1" style="shape-rendering:geometricPrecision; text-rendering:geometricPrecision; image-rendering:optimizeQuality; fill-rule:evenodd; clip-rule:evenodd"><rect id="ee-background" x="0" y="0" width="1067.7635498046875" height="248.68666076660156" style="fill: white; fill-opacity: 0; pointer-events: none;"/><defs><style id="ee-google-fonts">@import url(https://fonts.googleapis.com/css?family=Fugaz+One:400);</style></defs><g transform="matrix(10.445167541503906, 0, 0, 10.445167541503906, 773.2873649597168, -2.50567626953125)"><path d="m18.19 5.64c-1.08-2.3-3.45-3.89-6.19-3.89-3.45 0-6.3 2.51-6.77 5.8h-.08c-2.43 0-4.4 1.94-4.4 4.35s1.97 4.35 4.4 4.35h12.72c2.97 0 5.38-2.38 5.38-5.32 0-2.83-2.23-5.14-5.06-5.29z" fill="#00bcd4"/><path d="m16.75 17.25h-3v-5c0-.28-.22-.5-.5-.5h-2.5c-.28 0-.5.22-.5.5v5h-3l4.75 5z" fill="#607d8b"/><path d="m12 23c-.206 0-.402-.084-.544-.233l-4.75-5c-.206-.217-.264-.537-.146-.813s.39-.454.69-.454h2.25v-4.25c0-.689.561-1.25 1.25-1.25h2.5c.689 0 1.25.561 1.25 1.25v4.25h2.25c.3 0 .571.179.689.454s.061.595-.146.813l-4.75 5c-.141.149-.337.233-.543.233zm-3.003-5 3.003 3.161 3.003-3.161h-1.253c-.414 0-.75-.336-.75-.75v-4.75h-2v4.75c0 .414-.336.75-.75.75z"/><path d="m4.191 16.89c-.054 0-.107-.005-.161-.017-2.373-.518-4.03-2.563-4.03-4.973 0-2.629 2.02-4.8 4.603-5.071.777-3.364 3.852-5.829 7.397-5.829 2.792 0 5.363 1.529 6.671 3.93 3.022.377 5.329 2.933 5.329 6 0 2.551-1.623 4.84-4.039 5.697-.39.139-.819-.066-.958-.457s.066-.819.456-.958c1.819-.645 3.041-2.366 3.041-4.283 0-2.417-1.91-4.412-4.35-4.541-.275-.015-.521-.18-.639-.43-.986-2.1-3.15-3.458-5.511-3.458-3.017 0-5.607 2.216-6.027 5.156-.053.369-.369.644-.743.644-2.093 0-3.73 1.615-3.73 3.6 0 1.699 1.172 3.141 2.851 3.507.404.088.661.488.572.893-.076.351-.387.59-.732.59z"/></g><path d="M 233.07081604003906 538.8399658203125 L 220.10081481933594 613 L 201.45082092285156 613 L 188.4708251953125 572.4199829101562 L 181.4708251953125 613 L 162.83082580566406 613 L 175.9108123779297 538.8399658203125 L 195.07081604003906 538.8399658203125 L 207.8408203125 576.739990234375 L 214.53082275390625 538.8399658203125 L 233.07081604003906 538.8399658203125 ZM 285.7618103027344 607.5900268554688 C 285.7618103027344 607.5900268554688 284.3951416015625 608.7333374023438 281.66180419921875 611.02001953125 C 278.9351501464844 613.2999877929688 272.5918273925781 614.4400024414062 262.6318054199219 614.4400024414062 C 252.67848205566406 614.4400024414062 245.7784881591797 612.1400146484375 241.93182373046875 607.5399780273438 C 239.18515014648438 604.3800048828125 237.8118133544922 600.02001953125 237.8118133544922 594.4600219726562 C 237.8118133544922 591.9866943359375 238.0851593017578 589.2733154296875 238.63182067871094 586.3200073242188 L 246.9818115234375 538.8399658203125 L 265.5218200683594 538.8399658203125 L 257.17181396484375 585.9099731445312 C 256.89849853515625 587.6300048828125 256.7618103027344 589.4166870117188 256.7618103027344 591.27001953125 C 256.7618103027344 596.07666015625 259.6451416015625 598.47998046875 265.41180419921875 598.47998046875 C 268.84515380859375 598.47998046875 271.5918273925781 597.586669921875 273.6518249511719 595.7999877929688 C 275.7118225097656 594.0133056640625 277.1551513671875 590.7166748046875 277.9818115234375 585.9099731445312 L 286.3218078613281 538.8399658203125 L 304.86181640625 538.8399658203125 L 296.5218200683594 586.3200073242188 C 294.8084716796875 595.933349609375 291.2218322753906 603.0233154296875 285.7618103027344 607.5900268554688 ZM 352.7648010253906 613 L 305.7947998046875 613 L 318.87481689453125 538.8399658203125 L 337.414794921875 538.8399658203125 L 327.2148132324219 596.9299926757812 L 355.6448059082031 596.9299926757812 L 352.7648010253906 613 ZM 407.9727783203125 613 L 361.0027770996094 613 L 374.0827941894531 538.8399658203125 L 392.622802734375 538.8399658203125 L 382.42279052734375 596.9299926757812 L 410.852783203125 596.9299926757812 L 407.9727783203125 613 ZM 467.9107971191406 613 L 416.2107849121094 613 L 429.2908020019531 538.8399658203125 L 480.99078369140625 538.8399658203125 L 478.11077880859375 554.9099731445312 L 444.9407958984375 554.9099731445312 L 442.5807800292969 568.8099975585938 L 469.9707946777344 568.8099975585938 L 467.0907897949219 584.8800048828125 L 439.6907958984375 584.8800048828125 L 437.63079833984375 596.9299926757812 L 470.80078125 596.9299926757812 L 467.9107971191406 613 ZM 521.6817626953125 538.8399658203125 C 530.6751098632812 538.8399658203125 537.0950927734375 541.106689453125 540.9417724609375 545.6400146484375 C 543.755126953125 549.0733642578125 545.1618041992188 553.3633422851562 545.1618041992188 558.510009765625 C 545.1618041992188 560.3633422851562 544.9918212890625 562.3200073242188 544.6517944335938 564.3800048828125 L 540.6317749023438 587.3499755859375 C 539.2584228515625 595.1099853515625 535.8951416015625 601.32666015625 530.5418090820312 606 C 525.1817626953125 610.6666870117188 518.2451171875 613 509.7317810058594 613 L 479.76177978515625 613 L 492.841796875 538.8399658203125 L 521.6817626953125 538.8399658203125 M 515.1917724609375 554.9099731445312 L 508.4917907714844 554.9099731445312 L 501.1817932128906 596.9299926757812 L 510.9718017578125 596.9299926757812 C 514.198486328125 596.9299926757812 516.7218017578125 596.056640625 518.5418090820312 594.3099975585938 C 520.36181640625 592.556640625 521.6151123046875 589.6866455078125 522.3017578125 585.7000122070312 L 525.2817993164062 568.8099975585938 C 525.561767578125 567.3033447265625 525.7017822265625 565.9299926757812 525.7017822265625 564.6900024414062 C 525.7017822265625 558.1699829101562 522.198486328125 554.9099731445312 515.1917724609375 554.9099731445312 Z" transform="matrix(1.8814091682434082, 0, 0, 1.8814091682434082, -275.4638671875, -973.3496704101562)" style="fill: rgb(0, 187, 212); white-space: pre; color: rgb(0, 187, 212);"/></svg>